<?xml version="1.0" encoding="UTF-8"?>
<svg width="32" height="32" viewBox="0 0 32 32" xmlns="http://www.w3.org/2000/svg">
    <!-- Círculo de fundo -->
    <circle cx="16" cy="16" r="16" fill="#1976d2"/>
    <!-- Ícone de link centralizado e em branco -->
    <path fill="#ffffff" d="M8.9 16c0-1.71 1.39-3.1 3.1-3.1h4V11h-4c-2.76 0-5 2.24-5 5s2.24 5 5 5h4v-1.9h-4c-1.71 0-3.1-1.39-3.1-3.1M13 17h8v-2h-8zm9-6h-4v1.9h4c1.71 0 3.1 1.39 3.1 3.1s-1.39 3.1-3.1 3.1h-4V21h4c2.76 0 5-2.24 5-5s-2.24-5-5-5" transform="translate(1, 0) scale(0.9)"/>
</svg>